<?xml version="1.0" standalone="no"?>
<!DOCTYPE svg PUBLIC "-//W3C//DTD SVG 20010904//EN"
 "http://www.w3.org/TR/2001/REC-SVG-20010904/DTD/svg10.dtd">
<svg version="1.0" xmlns="http://www.w3.org/2000/svg"
 width="1012.000000pt" height="1012.000000pt" viewBox="0 0 1012.000000 1012.000000"
 preserveAspectRatio="xMidYMid meet">
<metadata>
Created by potrace 1.11, written by Peter Selinger 2001-2013
</metadata>
<g transform="translate(0.000000,1012.000000) scale(0.100000,-0.100000)"
fill="#000000" stroke="none">
<path d="M3007 9494 c-2 -2 -28 -6 -58 -8 -46 -4 -102 -12 -144 -20 -88 -17
-257 -98 -332 -159 -97 -80 -214 -233 -272 -358 -39 -86 -82 -199 -74 -199 3
0 1 -6 -5 -12 -10 -13 -48 -168 -59 -237 -10 -69 -11 -76 -13 -76 -1 0 -3 -13
-5 -30 -2 -16 -7 -66 -11 -110 -10 -99 -11 -520 -1 -635 9 -109 15 -165 22
-215 4 -22 8 -58 11 -80 6 -44 41 -255 49 -295 5 -26 11 -56 20 -103 3 -15 15
-67 26 -115 12 -48 22 -94 24 -103 3 -12 -30 -26 -148 -63 -84 -25 -159 -48
-167 -51 -24 -6 -198 -70 -285 -105 -105 -42 -129 -51 -135 -52 -3 0 -14 -7
-25 -14 -11 -8 -27 -14 -37 -14 -10 0 -18 -4 -18 -9 0 -5 -17 -15 -37 -22
-103 -34 -538 -284 -601 -346 -7 -7 -16 -13 -20 -13 -4 0 -21 -13 -38 -28 -17
-15 -49 -40 -70 -57 -43 -33 -212 -200 -258 -255 -44 -51 -166 -237 -166 -252
0 -8 -6 -22 -13 -33 -14 -21 -47 -104 -52 -133 -2 -9 -4 -17 -5 -17 -1 0 -3
-7 -5 -15 -12 -56 -17 -94 -20 -155 -2 -38 -4 -74 -6 -80 -1 -5 0 -21 3 -35 4
-14 12 -56 19 -95 27 -155 119 -338 248 -495 47 -58 204 -217 256 -260 108
-90 137 -112 193 -151 35 -24 71 -48 80 -54 9 -5 21 -14 26 -18 29 -21 236
-145 236 -141 0 3 12 -3 28 -14 63 -44 533 -257 612 -277 8 -2 67 -23 130 -45
63 -23 123 -43 133 -45 9 -2 21 -6 25 -9 5 -3 24 -8 42 -11 73 -13 76 -21 45
-129 -8 -27 -13 -52 -10 -54 3 -3 0 -11 -5 -18 -6 -6 -10 -16 -8 -20 1 -5 -1
-22 -5 -39 -20 -82 -33 -146 -41 -195 -3 -19 -7 -44 -10 -55 -3 -18 -11 -72
-21 -150 -2 -16 -7 -50 -10 -75 -39 -294 -39 -710 0 -960 3 -19 7 -44 9 -55 2
-11 6 -33 9 -50 4 -16 9 -41 11 -55 32 -170 149 -447 235 -553 75 -93 152
-169 205 -201 17 -10 33 -22 36 -26 8 -12 183 -91 215 -96 59 -11 79 -15 84
-19 26 -15 260 -21 356 -9 28 4 61 8 75 8 14 1 31 6 38 10 7 4 12 5 12 3 0 -4
34 3 93 18 9 3 25 7 35 9 43 10 139 38 157 46 11 5 49 20 85 33 112 42 357
159 445 214 22 13 78 48 124 76 46 29 94 59 106 67 67 45 86 59 155 109 41 30
80 60 87 65 22 19 37 31 73 56 19 13 44 33 55 44 11 12 47 43 80 69 61 50 194
169 247 221 l29 29 52 -50 c113 -110 138 -133 144 -133 3 0 16 -10 28 -22 40
-41 99 -93 135 -118 19 -14 45 -35 56 -47 12 -13 26 -23 32 -23 6 0 15 -6 19
-13 4 -6 39 -34 76 -62 38 -27 81 -60 97 -73 15 -12 32 -22 38 -22 6 0 12 -4
14 -9 7 -18 313 -206 433 -266 22 -11 43 -24 46 -28 3 -5 8 -8 10 -6 2 1 27
-8 54 -21 28 -12 73 -32 100 -45 77 -34 250 -91 350 -115 172 -40 388 -51 505
-26 14 3 39 8 55 12 230 45 438 210 582 459 19 33 63 123 63 129 0 3 11 30 25
60 14 30 25 63 25 74 0 10 3 22 7 26 4 3 8 12 9 19 2 7 10 37 18 67 8 30 17
66 20 80 3 14 10 43 15 65 5 22 12 60 15 85 4 25 8 56 10 70 22 154 36 526 21
550 -3 6 -1 10 5 10 6 0 8 5 4 12 -4 6 -9 39 -10 72 -2 34 -6 93 -9 131 -3 39
-8 93 -10 121 -2 29 -7 66 -10 83 -11 66 -14 88 -20 135 -3 27 -8 59 -10 70
-5 23 -8 38 -31 166 -8 47 -24 120 -35 164 -11 43 -19 85 -17 93 2 13 70 41
138 58 8 2 15 4 15 5 0 1 7 3 15 5 56 14 384 139 485 185 36 17 68 30 70 30 7
0 271 132 318 159 20 11 52 30 71 40 64 36 80 46 90 54 6 4 49 33 96 63 47 31
87 59 90 63 3 3 19 15 35 25 113 72 425 376 425 414 0 7 4 12 8 12 5 0 33 42
64 93 103 172 147 320 152 505 1 28 -1 52 -5 52 -3 0 -5 10 -4 23 5 62 -87
333 -117 345 -4 2 -8 8 -8 13 0 31 -140 211 -245 314 -265 262 -622 481 -1109
682 -61 25 -115 46 -121 48 -5 1 -21 6 -35 12 -14 6 -74 27 -135 47 -60 21
-119 41 -130 46 -11 4 -49 16 -85 25 -115 31 -110 25 -94 87 8 29 17 65 19 81
3 15 12 58 19 95 8 37 17 85 20 107 4 22 8 47 11 55 4 14 9 48 20 128 3 20 10
66 15 102 9 58 13 93 25 220 16 168 22 483 10 599 -3 31 -7 85 -10 121 -3 36
-7 76 -9 90 -2 14 -8 48 -12 75 -4 28 -8 52 -9 55 -4 15 -15 68 -19 90 -8 40
-55 197 -77 253 -28 71 -110 231 -120 235 -5 2 -9 10 -9 18 0 8 -4 14 -9 14
-5 0 -11 6 -13 14 -5 24 -137 165 -194 207 -65 48 -177 105 -246 126 -51 15
-62 17 -128 30 -87 17 -343 7 -445 -18 -22 -5 -53 -12 -70 -15 -16 -3 -38 -10
-47 -15 -10 -5 -18 -7 -18 -4 0 3 -17 -2 -37 -10 -21 -9 -38 -15 -38 -14 0 4
-78 -22 -110 -37 -16 -7 -59 -25 -95 -39 -127 -53 -303 -145 -440 -232 -51
-32 -99 -62 -109 -68 -49 -30 -216 -152 -336 -247 -38 -30 -157 -128 -168
-140 -8 -7 -45 -41 -83 -74 -38 -34 -81 -72 -95 -85 -73 -67 -99 -89 -104 -89
-3 0 -18 12 -33 28 -38 37 -149 138 -213 192 -29 25 -69 60 -90 78 -20 17 -42
32 -49 32 -8 0 -10 3 -7 7 4 3 -1 11 -12 17 -14 9 -177 129 -241 179 -47 36
-140 97 -148 97 -6 0 -12 4 -14 8 -4 10 -105 72 -117 72 -5 0 -11 4 -13 8 -10
26 -498 266 -498 245 0 -3 -6 -1 -12 5 -21 17 -171 63 -283 86 -105 22 -132
26 -225 32 -47 2 -93 6 -102 8 -9 2 -18 2 -21 0z m4248 -435 c83 -19 127 -45
197 -113 76 -74 166 -244 193 -366 2 -8 11 -46 20 -85 9 -38 19 -83 21 -100 3
-16 7 -43 9 -60 11 -69 17 -145 18 -222 1 -46 6 -83 10 -83 5 0 5 -5 2 -10 -7
-11 -8 -77 -1 -122 2 -16 0 -28 -3 -28 -3 0 -6 -35 -7 -78 -1 -78 -12 -255
-18 -289 -2 -10 -7 -43 -10 -73 -4 -30 -8 -66 -11 -80 -2 -14 -6 -43 -9 -65
-5 -34 -23 -134 -40 -225 -2 -14 -15 -71 -27 -128 l-23 -102 -36 5 c-20 3 -51
10 -68 15 -18 5 -32 6 -32 4 0 -3 -6 -2 -12 2 -7 5 -19 9 -28 10 -8 1 -28 5
-45 8 -16 4 -41 9 -55 12 -14 2 -36 7 -50 10 -13 3 -38 7 -55 10 -16 2 -41 6
-55 9 -14 3 -38 7 -55 10 -16 3 -52 10 -80 15 -27 5 -68 12 -90 15 -62 9 -118
17 -145 20 -49 6 -125 17 -150 21 -32 5 -78 11 -160 19 -36 4 -78 9 -95 11
-16 2 -52 6 -79 9 -28 3 -50 7 -51 8 -8 14 -168 236 -178 247 -8 8 -22 30 -33
48 -10 17 -21 32 -24 32 -4 0 -22 21 -40 48 -96 134 -352 444 -488 590 -77 83
-77 85 -38 124 160 157 591 508 624 508 6 0 12 3 14 8 8 18 215 146 343 210
50 25 93 50 96 54 3 5 16 10 27 11 12 1 22 6 22 11 0 5 3 6 7 3 3 -4 16 -1 28
7 24 16 236 89 306 105 25 6 70 13 100 17 30 3 55 7 57 9 7 6 153 -6 197 -16z
m-4080 -3 c22 -3 49 -8 60 -11 11 -2 36 -8 55 -13 19 -5 37 -9 40 -10 22 -4
168 -53 207 -69 18 -7 35 -13 38 -14 2 0 54 -24 115 -54 61 -30 114 -55 119
-55 5 0 11 -3 13 -7 2 -5 23 -19 48 -32 64 -35 277 -170 294 -187 8 -8 17 -14
21 -14 7 0 191 -137 220 -163 11 -11 39 -33 63 -50 23 -17 42 -34 42 -39 0 -4
5 -8 10 -8 6 0 21 -10 33 -23 12 -12 58 -53 102 -92 44 -38 93 -82 108 -98
l29 -29 -29 -30 c-15 -17 -37 -40 -48 -52 -45 -48 -155 -173 -176 -201 -13
-16 -28 -35 -34 -41 -5 -6 -26 -30 -47 -55 -79 -96 -104 -125 -116 -139 -27
-32 -202 -262 -282 -370 -46 -63 -87 -116 -92 -118 -4 -2 -8 -10 -8 -17 0 -21
-28 -32 -95 -39 -33 -3 -82 -8 -109 -11 -28 -3 -73 -8 -100 -10 -28 -3 -65 -7
-83 -10 -18 -3 -49 -8 -70 -10 -21 -1 -38 -4 -38 -5 0 -1 -16 -3 -35 -5 -37
-2 -90 -10 -180 -25 -30 -5 -72 -12 -94 -16 -21 -3 -46 -7 -55 -9 -9 -1 -36
-6 -61 -10 -85 -14 -130 -23 -205 -40 -33 -8 -73 -16 -90 -19 -16 -2 -54 -10
-83 -16 -29 -7 -55 -10 -57 -8 -2 2 -6 17 -9 33 -3 17 -8 41 -12 55 -19 83
-27 117 -28 136 -1 11 -5 24 -8 30 -3 5 -9 29 -13 54 -3 25 -13 78 -21 119 -8
40 -17 93 -20 116 -2 24 -7 52 -9 63 -2 12 -7 52 -10 89 -4 37 -8 78 -10 90
-15 97 -23 467 -11 583 7 79 17 164 22 190 2 14 7 41 10 60 6 40 32 141 46
180 3 8 14 38 23 65 19 54 77 165 104 198 32 39 94 92 129 112 21 11 39 22 42
25 6 6 11 7 94 24 58 12 175 13 251 2z m2012 -1380 c27 -29 68 -76 93 -106 25
-29 50 -58 55 -64 6 -6 51 -60 99 -121 49 -60 93 -111 97 -113 5 -2 9 -8 9
-13 0 -5 29 -46 65 -92 36 -45 65 -85 65 -88 0 -3 -24 -3 -52 -1 -82 6 -972
10 -982 4 -5 -2 -37 -5 -71 -6 -52 -1 -61 2 -57 14 6 15 53 78 82 110 8 9 29
34 45 55 76 98 157 197 217 266 13 14 43 49 67 77 24 28 70 79 102 114 32 35
59 68 59 73 0 6 14 -5 30 -24 16 -18 51 -57 77 -85z m408 -1020 c55 -4 145 -9
200 -12 55 -3 118 -7 140 -9 22 -2 45 -4 51 -4 6 -1 32 -34 57 -73 26 -40 52
-80 57 -88 123 -183 430 -686 430 -704 0 -2 23 -42 50 -90 28 -48 50 -91 50
-95 0 -5 7 -14 15 -21 8 -7 15 -21 15 -30 0 -10 4 -20 8 -22 5 -1 53 -88 107
-193 53 -104 106 -204 117 -222 l19 -31 -91 -181 c-51 -100 -110 -214 -132
-254 -22 -39 -56 -101 -75 -137 -44 -80 -144 -257 -160 -285 -7 -11 -16 -28
-19 -37 -3 -10 -10 -18 -14 -18 -5 0 -12 -10 -16 -22 -4 -13 -9 -25 -13 -28
-10 -8 -42 -63 -48 -82 -3 -10 -9 -18 -14 -18 -5 0 -9 -4 -9 -10 0 -5 -16 -34
-35 -64 -19 -30 -35 -60 -35 -66 0 -5 -4 -10 -10 -10 -5 0 -10 -4 -10 -9 0 -8
-58 -102 -80 -128 -5 -6 -19 -30 -31 -52 -12 -23 -24 -41 -28 -41 -3 0 -14
-18 -25 -40 -32 -67 -69 -104 -107 -107 -19 -1 -81 -4 -139 -7 -58 -3 -161 -8
-230 -12 -165 -9 -888 -9 -1065 -1 -360 18 -339 16 -357 40 -10 12 -22 27 -26
32 -4 6 -11 17 -15 25 -8 18 -30 53 -37 60 -6 6 -164 249 -228 351 -23 36 -42
69 -42 73 0 4 -5 12 -10 19 -9 10 -78 124 -140 232 -10 17 -41 70 -69 118 -28
49 -51 93 -51 98 0 5 -5 9 -12 9 -6 0 -8 3 -5 7 4 3 3 11 -2 17 -24 29 -221
414 -221 431 0 7 -3 15 -7 17 -5 2 -15 17 -24 34 l-17 32 135 268 c75 148 139
271 144 272 5 2 9 9 9 15 0 7 23 53 51 102 28 50 63 110 77 135 13 25 33 57
43 72 11 14 19 29 19 33 0 4 13 26 28 49 15 22 31 48 35 56 4 8 13 24 20 35 7
11 36 61 66 110 30 50 58 92 63 93 4 2 8 8 8 14 0 14 210 328 221 329 5 1 26
2 47 3 20 1 42 5 49 9 6 4 14 3 18 -3 4 -6 11 -7 17 -4 11 7 36 9 268 19 85 3
156 7 157 9 5 5 767 -2 858 -8z m-1975 -95 c0 -5 -7 -14 -15 -21 -8 -7 -15
-16 -15 -21 0 -11 -83 -143 -92 -147 -5 -2 -8 -7 -8 -12 0 -9 -41 -80 -89
-155 -14 -22 -30 -49 -36 -60 -6 -11 -34 -58 -61 -105 -70 -121 -75 -130 -118
-212 -21 -40 -41 -75 -45 -78 -6 -5 -42 -79 -44 -90 0 -3 -7 -11 -14 -18 -7
-7 -13 -19 -13 -25 0 -7 -9 -22 -18 -35 l-18 -24 -27 64 c-15 35 -26 65 -26
68 1 3 -7 23 -18 45 -11 22 -41 99 -67 170 -26 72 -51 139 -56 150 -5 11 -20
56 -35 100 -15 44 -30 87 -33 95 -3 8 -6 20 -8 25 -1 6 -12 40 -23 78 -18 62
-18 67 -3 68 9 0 24 2 32 4 40 8 67 14 90 19 14 3 45 10 70 16 25 5 61 12 80
14 19 3 45 7 56 10 12 2 37 7 55 10 19 3 45 8 59 10 14 3 43 7 65 11 22 3 65
10 95 15 56 10 73 13 170 25 30 4 56 8 57 9 8 6 53 4 53 -3z m2990 -6 c9 -6
11 -4 5 5 -5 9 -4 11 3 6 7 -4 31 -10 54 -12 24 -3 52 -7 63 -9 11 -2 45 -6
75 -10 30 -4 58 -8 61 -10 3 -2 28 -7 55 -10 45 -6 316 -57 374 -70 14 -3 51
-11 84 -17 32 -7 60 -17 63 -24 5 -13 -50 -182 -134 -409 -51 -140 -62 -167
-99 -252 -8 -17 -14 -34 -14 -38 0 -4 -7 -22 -15 -41 -8 -19 -22 -50 -31 -70
-9 -20 -17 -34 -19 -32 -13 13 -115 202 -115 213 0 7 -4 15 -8 17 -5 2 -35 50
-67 108 -53 95 -190 330 -236 405 -10 17 -23 40 -29 53 -5 12 -13 22 -17 22
-5 0 -17 19 -28 43 -11 23 -22 44 -26 47 -7 6 -59 88 -59 94 0 7 46 0 60 -9z
m-4292 -295 c6 -22 12 -47 12 -55 0 -8 5 -15 12 -15 6 0 9 -3 6 -6 -4 -3 5
-38 19 -77 13 -40 26 -79 28 -87 5 -23 101 -283 142 -385 92 -230 143 -349
209 -492 19 -40 34 -81 34 -91 0 -21 -16 -65 -56 -150 -13 -29 -24 -55 -24
-57 0 -2 -11 -28 -24 -57 -13 -29 -48 -114 -78 -188 -30 -74 -59 -144 -63
-155 -5 -11 -9 -22 -9 -25 -1 -3 -7 -18 -13 -35 -28 -70 -36 -91 -39 -107 -2
-9 -15 -42 -28 -72 -14 -31 -22 -56 -19 -56 3 0 0 -6 -6 -13 -6 -8 -12 -22
-14 -33 -1 -10 -5 -23 -8 -29 -3 -5 -27 -76 -54 -157 -38 -118 -52 -148 -66
-148 -10 0 -21 5 -24 10 -3 6 -14 10 -23 10 -17 0 -246 72 -287 89 -11 5 -58
24 -105 42 -117 45 -238 98 -365 162 -33 16 -78 38 -100 49 -22 11 -48 28 -59
37 -10 9 -20 15 -22 13 -3 -2 -35 16 -72 40 -37 23 -79 49 -95 57 -15 7 -27
17 -27 22 0 5 -5 9 -11 9 -9 0 -56 33 -124 86 -11 8 -36 27 -55 42 -41 32
-195 184 -230 228 -204 251 -220 475 -51 709 72 100 188 217 290 293 20 15 38
30 41 33 7 8 218 149 224 149 2 0 37 19 78 43 64 38 217 115 318 160 100 45
129 57 135 57 3 0 24 9 48 19 58 27 285 109 347 126 8 2 51 15 95 28 44 13 85
22 90 20 6 -2 16 -21 23 -43z m5637 22 c5 -4 17 -7 25 -9 42 -6 350 -115 465
-164 17 -7 32 -13 35 -14 20 -7 59 -24 148 -66 57 -27 105 -49 108 -49 2 0 22
-11 44 -25 22 -14 40 -23 40 -20 0 3 17 -6 37 -20 21 -14 41 -25 45 -25 15 0
236 -144 328 -213 117 -89 250 -220 314 -310 168 -236 147 -452 -69 -706 -70
-82 -195 -195 -295 -266 -30 -22 -57 -42 -60 -45 -3 -3 -36 -25 -75 -49 -38
-24 -88 -56 -110 -69 -63 -40 -245 -134 -350 -182 -27 -12 -74 -33 -103 -46
-29 -13 -57 -24 -62 -24 -6 0 -10 -4 -10 -8 0 -5 -6 -9 -12 -10 -19 -1 -39 -7
-73 -21 -52 -22 -134 -52 -140 -52 -2 0 -25 -8 -50 -19 -25 -11 -45 -17 -45
-13 0 3 -6 1 -12 -4 -7 -6 -45 -20 -85 -32 -40 -12 -78 -24 -86 -26 -11 -5
-33 36 -43 80 -6 26 -89 256 -144 400 -34 88 -63 165 -64 170 -3 10 -17 42
-56 130 -10 22 -36 85 -60 139 -23 55 -66 151 -96 214 -30 63 -54 121 -54 129
0 14 11 42 50 128 63 138 84 187 145 335 37 91 72 176 78 190 6 14 11 27 12
30 7 29 30 88 38 98 5 6 7 12 4 12 -3 0 8 33 24 72 16 40 31 80 33 88 2 8 6
22 9 30 3 8 22 65 42 125 20 61 38 116 41 124 3 10 14 11 42 6 20 -4 41 -10
47 -13z m-770 -1817 c21 -49 45 -108 54 -130 80 -186 223 -579 233 -639 2 -13
-4 -19 -22 -21 -28 -4 -46 -7 -147 -29 -40 -9 -85 -18 -100 -21 -16 -3 -39 -7
-53 -10 -14 -3 -41 -8 -60 -11 -19 -3 -57 -9 -85 -14 -79 -15 -169 -28 -185
-28 -8 0 -28 -3 -45 -7 -32 -7 -72 -12 -149 -20 -27 -3 -52 -8 -57 -10 -15
-10 -19 13 -4 25 8 7 15 16 15 20 0 4 18 37 40 71 22 35 46 75 52 89 7 14 15
27 19 30 3 3 8 10 10 15 2 6 33 59 69 119 70 116 98 166 137 236 13 25 32 59
42 75 10 17 36 64 58 105 23 41 56 102 74 135 18 33 39 73 47 88 8 16 15 27
17 25 2 -2 20 -43 40 -93z m-4135 50 c0 -7 3 -15 8 -17 4 -1 25 -37 46 -78 22
-41 47 -89 57 -107 10 -18 35 -63 55 -100 21 -37 45 -80 53 -95 9 -15 40 -69
70 -120 30 -51 76 -128 103 -170 26 -43 48 -82 48 -88 0 -5 4 -10 8 -10 5 0
15 -12 23 -27 8 -15 36 -61 62 -101 27 -41 47 -76 45 -78 -4 -3 -253 26 -333
40 -16 3 -50 8 -75 11 -56 8 -113 17 -205 34 -27 5 -67 13 -89 16 -37 6 -50 9
-98 20 -13 3 -39 8 -58 11 -49 8 -54 16 -39 61 7 21 14 41 15 46 1 4 2 8 4 10
1 1 3 9 5 17 1 8 13 44 25 80 12 36 23 70 25 75 1 6 5 17 8 25 4 8 24 65 46
126 35 98 113 299 159 406 15 35 32 42 32 13z m4561 -1307 c7 -29 14 -60 15
-68 1 -8 12 -57 23 -109 11 -51 23 -116 26 -142 4 -27 10 -62 15 -78 4 -16 6
-31 4 -34 -2 -2 1 -28 6 -58 10 -52 13 -87 27 -259 12 -161 6 -517 -11 -620
-2 -14 -7 -47 -11 -75 -35 -248 -128 -476 -244 -599 -52 -54 -144 -112 -196
-121 -11 -2 -33 -7 -50 -10 -55 -10 -199 -5 -281 9 -16 3 -60 15 -99 26 -38
11 -77 22 -85 25 -8 2 -40 13 -70 25 -30 11 -68 26 -85 32 -51 19 -316 157
-342 178 -14 11 -31 20 -39 20 -7 0 -14 3 -16 8 -1 4 -34 27 -73 52 -38 25
-76 50 -83 57 -8 7 -23 18 -35 25 -21 11 -223 163 -243 182 -6 6 -28 25 -48
41 -61 48 -151 127 -259 227 l-58 54 23 25 c38 42 134 152 203 234 22 26 45
53 50 59 71 79 323 408 460 599 54 76 101 140 104 142 8 4 69 11 246 29 33 4
74 8 90 11 47 7 148 18 173 19 12 1 22 3 22 6 0 3 12 5 28 6 27 1 109 10 147
18 73 13 165 28 190 30 11 1 29 5 40 8 11 4 40 9 65 13 25 3 63 10 85 16 22 5
58 12 80 15 21 3 42 7 46 10 4 2 22 6 41 9 18 3 47 9 63 14 17 4 33 7 36 5 4
-2 13 -28 20 -56z m-4931 26 c14 -2 45 -9 70 -14 25 -5 56 -12 70 -14 14 -3
34 -7 45 -9 27 -6 81 -15 129 -23 21 -3 48 -8 60 -10 28 -6 87 -16 106 -18 8
-1 42 -6 75 -11 33 -4 71 -9 85 -11 14 -1 25 -3 25 -4 0 -1 16 -3 35 -5 43 -3
126 -14 160 -20 23 -4 65 -8 195 -21 148 -13 171 -15 187 -15 10 0 30 -17 45
-37 16 -20 32 -41 36 -47 8 -11 76 -103 105 -144 9 -13 23 -29 30 -36 6 -8 12
-16 12 -19 0 -6 18 -29 55 -72 11 -12 29 -35 40 -50 25 -35 185 -235 199 -250
6 -6 29 -32 51 -59 53 -65 101 -120 151 -175 23 -25 55 -60 70 -79 16 -18 42
-47 59 -63 l29 -31 -81 -76 c-45 -42 -103 -94 -129 -116 -26 -22 -65 -57 -88
-77 -22 -21 -44 -38 -48 -38 -4 0 -13 -6 -20 -13 -27 -26 -185 -145 -253 -190
-38 -26 -74 -50 -80 -55 -27 -21 -146 -92 -154 -92 -5 0 -11 -4 -13 -9 -8 -23
-399 -203 -493 -228 -5 -1 -50 -13 -100 -27 -231 -62 -459 -52 -570 26 -40 28
-97 84 -121 120 -16 24 -32 45 -35 48 -11 10 -66 136 -87 200 -27 81 -54 194
-57 240 -2 19 -4 35 -5 35 -3 0 -7 36 -16 140 -16 191 -5 567 22 720 2 17 6
44 8 60 3 29 18 135 21 145 1 3 5 28 9 55 4 28 12 66 16 85 5 19 12 51 15 70
4 19 8 44 10 55 10 52 36 158 41 167 3 5 18 7 33 3 14 -4 37 -9 51 -11z m2993
-227 c-7 -13 -178 -237 -209 -275 -11 -12 -28 -34 -39 -48 -11 -14 -28 -35
-38 -47 -11 -12 -33 -40 -50 -61 -18 -22 -41 -49 -52 -61 -11 -12 -37 -41 -57
-66 -20 -24 -57 -66 -82 -94 l-45 -50 -38 40 c-98 105 -165 181 -233 265 -25
30 -47 57 -51 60 -3 3 -23 28 -45 55 -22 28 -47 59 -56 70 -32 37 -168 213
-168 217 0 2 228 4 508 3 279 -1 539 1 577 5 77 6 89 4 78 -13z"/>
<path d="M4986 6303 c-3 -3 -81 -8 -173 -10 -210 -4 -281 -8 -289 -16 -4 -3
-14 -2 -24 3 -10 5 -20 6 -24 3 -4 -4 -28 -7 -54 -8 l-47 0 -72 -105 c-40 -58
-72 -110 -73 -117 0 -6 -4 -13 -8 -15 -4 -1 -27 -33 -50 -70 l-42 -68 202 -1
c296 -1 318 -4 424 -56 62 -30 123 -86 194 -178 30 -38 60 -76 67 -83 7 -7 13
-16 13 -20 0 -4 13 -20 28 -37 15 -16 39 -46 52 -65 27 -38 48 -65 68 -85 6
-8 12 -16 12 -19 0 -3 8 -14 18 -24 30 -32 62 -72 62 -78 0 -3 6 -11 13 -18 6
-7 23 -28 37 -46 41 -55 75 -95 83 -98 4 -2 7 -8 7 -13 0 -12 102 -139 112
-139 5 0 16 12 26 28 27 44 256 347 264 350 5 2 8 10 8 17 0 7 4 15 8 17 4 2
23 25 42 53 19 27 40 55 45 62 18 21 46 57 120 158 67 90 73 102 61 120 -7 11
-48 78 -90 148 -43 71 -109 175 -147 233 -38 57 -69 107 -69 110 0 21 -38 37
-98 41 -37 2 -103 5 -147 8 -44 3 -183 7 -308 9 -125 3 -231 7 -236 10 -4 3
-11 3 -15 -1z"/>
<path d="M4062 5788 c-6 -13 -26 -48 -43 -78 -17 -30 -47 -84 -66 -119 -19
-35 -43 -78 -54 -95 -10 -17 -64 -122 -121 -234 -77 -153 -99 -205 -89 -211 7
-5 12 -11 12 -15 -1 -10 34 -81 44 -88 6 -4 7 -8 2 -8 -4 0 5 -19 20 -42 14
-24 26 -45 26 -48 0 -7 20 -54 27 -60 3 -3 20 -34 38 -70 19 -36 66 -123 105
-193 40 -70 79 -142 88 -158 13 -26 17 -28 28 -16 6 9 8 17 4 20 -10 6 -9 159
1 175 3 6 2 13 -3 16 -5 3 -5 21 -1 41 4 19 5 35 1 35 -4 0 -7 9 -7 20 0 11 4
20 9 20 4 0 5 5 1 12 -9 14 -12 118 -3 123 5 4 4 41 -1 55 -6 14 -4 47 3 63 4
9 4 17 0 17 -4 0 -8 25 -8 55 0 30 3 55 7 55 4 0 3 14 -2 30 -5 19 -5 30 1 30
6 0 5 8 -1 20 -8 14 -8 20 0 20 6 0 8 5 5 11 -11 16 -12 69 -3 69 5 0 4 8 -1
19 -6 10 -8 20 -6 22 5 6 7 76 2 117 -2 17 0 32 5 32 4 0 3 12 -2 26 -7 17 -7
32 0 44 7 13 7 21 0 25 -6 4 -7 13 -1 24 6 10 6 23 1 31 -5 8 -5 21 -2 29 7
15 7 31 2 56 -1 6 -1 26 -1 45 3 106 1 114 -17 78z"/>
<path d="M6117 5670 c-3 -10 0 -21 7 -24 7 -3 7 -5 -2 -5 -9 -1 -10 -6 -3 -19
5 -9 6 -35 2 -58 -4 -22 -4 -49 -1 -60 4 -10 2 -22 -4 -26 -8 -6 -7 -8 1 -8 9
0 10 -7 4 -22 -5 -13 -5 -32 -1 -43 4 -11 5 -29 1 -40 -3 -11 -5 -35 -3 -52 1
-18 2 -39 2 -45 1 -30 1 -155 0 -173 -2 -27 -2 -32 0 -97 1 -31 -1 -61 -4 -67
-4 -5 -2 -12 3 -16 6 -3 7 -15 3 -28 -8 -23 -7 -85 2 -94 2 -3 1 -16 -5 -30
-6 -16 -6 -22 1 -18 6 4 7 -2 1 -17 -4 -13 -5 -32 -1 -43 4 -11 4 -29 1 -40
-8 -22 -6 -84 3 -92 2 -3 1 -16 -4 -29 -6 -16 -6 -24 1 -24 6 0 6 -6 -1 -19
-7 -14 -6 -21 2 -23 7 -3 26 22 43 56 18 34 42 79 55 101 37 64 159 296 177
338 9 20 20 37 25 37 4 0 8 7 8 15 0 9 7 27 16 40 15 23 12 30 -74 197 -49 95
-122 230 -161 300 -39 70 -71 132 -71 138 0 18 -17 11 -23 -10z"/>
<path d="M4357 5624 c-3 -5 -5 -93 -5 -195 l1 -186 119 3 c101 3 124 6 159 26
88 49 119 167 68 259 -38 67 -95 92 -229 97 -59 2 -110 0 -113 -4z"/>
<path d="M4873 5100 c-12 -15 -51 -42 -87 -61 l-65 -34 85 -130 c47 -72 89
-132 94 -133 10 -4 9 373 0 381 -3 3 -15 -8 -27 -23z"/>
<path d="M4353 4472 c0 -445 2 -582 12 -595 14 -20 72 -25 366 -32 l186 -4 2
32 c1 18 2 37 2 42 0 6 -2 73 -4 150 l-3 140 -109 165 c-59 91 -137 210 -173
265 -36 55 -81 125 -101 155 -19 30 -39 57 -43 58 -5 2 -6 8 -2 13 3 5 0 9 -5
9 -6 0 -11 7 -11 15 0 8 -3 15 -7 15 -5 0 -28 34 -53 75 -25 41 -48 75 -51 75
-3 0 -6 -260 -6 -578z"/>
<path d="M5170 4965 c-1 -19 -1 -276 -1 -571 -1 -476 1 -539 15 -553 9 -8 16
-11 16 -6 0 6 64 11 158 12 86 1 189 4 227 7 39 2 95 5 125 5 l55 1 35 55 c19
30 43 65 53 77 9 11 17 37 18 57 3 143 0 943 -3 946 -2 2 -35 -39 -73 -92 -39
-53 -76 -102 -83 -110 -7 -7 -11 -13 -7 -13 4 0 -1 -7 -9 -16 -9 -8 -37 -46
-63 -82 -26 -37 -53 -73 -60 -80 -7 -7 -20 -26 -30 -42 -9 -17 -20 -30 -23
-30 -4 0 -29 34 -65 88 -5 9 -15 23 -22 31 -39 50 -202 273 -227 309 -16 23
-30 42 -32 42 -2 0 -4 -16 -4 -35z"/>
</g>
</svg>
