<?xml version="1.0" encoding="UTF-8"?>
<svg width="50px" height="49px" viewBox="0 0 50 49" version="1.1" xmlns="http://www.w3.org/2000/svg" xmlns:xlink="http://www.w3.org/1999/xlink">
    <!-- Generator: Sketch 45.2 (43514) - http://www.bohemiancoding.com/sketch -->
    <title>githug</title>
    <desc>Created with Sketch.</desc>
    <defs></defs>
    <g id="Page-1" stroke="none" stroke-width="1" fill="none" fill-rule="evenodd">
        <g id="Mobile" transform="translate(-181.000000, -350.000000)" fill-rule="nonzero" fill="#54C1DE">
            <g id="githug" transform="translate(181.000000, 350.000000)">
                <path d="M25,0 C11.1938477,0 0,11.1938477 0,25 C0,36.0473633 7.1625,45.4162598 17.0974609,48.7212891 C18.347168,48.9501953 18.803418,48.1780762 18.803418,47.5188965 C18.803418,46.9237793 18.7805176,44.9523926 18.7683105,42.8649902 C11.8164062,44.3755859 10.3469727,39.9169922 10.3469727,39.9169922 C9.20869141,37.0300293 7.57138672,36.2609863 7.57138672,36.2609863 C5.29936523,34.7106934 7.74375,34.7412109 7.74375,34.7412109 C10.2538086,34.9151367 11.575293,37.3168945 11.575293,37.3168945 C13.8061523,41.1376953 17.4285645,40.032959 18.8506836,39.3920898 C19.0779297,37.7807617 19.7249023,36.6760254 20.4375977,36.0534668 C14.8879883,35.4217773 9.05,33.2763672 9.05,23.696875 C9.05,20.9655273 10.0250488,18.737793 11.6210938,16.9875977 C11.3662598,16.352832 10.5056641,13.8091797 11.8682617,10.3683594 C11.8682617,10.3683594 13.9648438,9.69697266 18.7438477,12.9318359 C20.7366211,12.3749023 22.8744141,12.1002441 24.9999512,12.0910645 C27.1239746,12.1002441 29.2632324,12.3779297 31.2591309,12.9348633 C36.0290527,9.69697266 38.1286621,10.3713867 38.1286621,10.3713867 C39.4958496,13.8152832 38.6352539,16.3558594 38.3789062,16.9875977 C39.9810547,18.737793 40.9484863,20.9655762 40.9484863,23.696875 C40.9484863,33.3007812 35.1013184,35.415625 29.5318848,36.0351562 C30.4321777,36.8103027 31.2286621,38.3300781 31.2286621,40.6616211 C31.2286621,44.0033203 31.1950684,46.697998 31.1950684,47.5219727 C31.1950684,48.1872559 31.6497559,48.9654297 32.9162598,48.7212891 C42.8436523,45.4101562 50,36.0412598 50,25 C50,11.1938477 38.8061523,0 25,0 Z" id="Shape"></path>
            </g>
        </g>
    </g>
</svg>