<?xml version="1.0" encoding="UTF-8"?>
<svg width="60px" height="60px" viewBox="0 0 60 60" version="1.1" xmlns="http://www.w3.org/2000/svg" xmlns:xlink="http://www.w3.org/1999/xlink">
    <!-- Generator: Sketch 45.2 (43514) - http://www.bohemiancoding.com/sketch -->
    <title>network</title>
    <desc>Created with Sketch.</desc>
    <defs></defs>
    <g id="Page-1" stroke="none" stroke-width="1" fill="none" fill-rule="evenodd">
        <g id="Mobile" transform="translate(-71.000000, -345.000000)" fill-rule="nonzero">
            <g id="network" transform="translate(71.000000, 345.000000)">
                <path d="M51.1968596,38.1332652 C51.2014958,43.5150375 47.4956706,48.1511811 42.4564177,49.0627285 C41.8219314,49.1766128 41.1812258,49.2440209 40.5373539,49.2376349 C40.3202422,49.2351515 40.2349807,49.3259751 40.1661155,49.5339943 C39.1600516,52.5548256 37.1523339,54.3555694 34.1194418,54.8096874 C32.113081,55.1098311 30.2923959,54.5471504 28.6963988,53.2352932 C28.4740855,53.0524633 28.3381645,53.0493886 28.1063525,53.2226394 C26.2396443,54.6189342 24.146665,55.2373153 21.8611121,55.0929199 C17.401163,54.8113431 13.648523,51.2463979 12.9465286,46.6493984 C12.8982438,46.331634 12.846906,46.0115044 12.8422697,45.6912565 C12.8376335,45.4249352 12.7409509,45.3221673 12.497718,45.2723799 C11.1474416,44.9970708 9.92211745,44.4154685 8.84108215,43.5305296 C6.8515701,41.9014992 5.65790811,39.7744763 5.38007299,37.1434297 C5.06322561,34.1320591 5.952592,31.5283305 7.97806317,29.3586158 C8.14134925,29.1845372 8.15152637,29.0633208 8.04014354,28.8586129 C7.2614815,27.4368922 6.89239162,25.8970298 6.9523235,24.2640968 C7.10181395,20.1887418 9.81344853,16.8217637 13.5851988,15.9881495 C14.0215707,15.8911764 14.2503295,15.7122492 14.4421115,15.2797726 C16.3024873,11.0880499 19.4261818,8.53872082 23.7608394,7.69789281 C26.8036824,7.10730278 29.674193,7.73963856 32.3378821,9.37812972 C32.5617785,9.5162573 32.7492635,9.52737373 32.9915918,9.45357955 C37.2222167,8.16986814 40.9708988,9.10376671 44.1533944,12.2685204 C46.0354814,14.1396288 47.0666489,16.5076654 47.3719622,19.2091949 C47.4387919,19.7997849 47.4692101,20.3959332 47.4262401,20.9897162 C47.4100698,21.2142918 47.4761079,21.3081902 47.679424,21.386833 C49.5866145,22.1251297 50.9017234,23.5019117 51.4770694,25.5383474 C52.193651,28.0714749 51.5917315,30.2927509 49.7817889,32.1397343 C49.6249483,32.3000947 49.6580805,32.3982505 49.7469606,32.5584927 C50.7034959,34.2818944 51.1990081,36.1369195 51.1968596,38.1332652 Z M32.3195633,37.26914 C32.3211464,39.5590067 33.7267184,41.582907 35.7199621,42.2705884 C36.718902,42.6155526 37.7492779,42.7792243 38.7951457,42.8273561 C39.5418063,42.8610602 40.2872232,42.8065423 40.9771182,42.4469139 C41.5195582,42.1636814 41.7751167,41.6958452 41.7505786,41.0724972 C41.7260404,40.44501 41.4573647,39.9757547 40.8834888,39.7259897 C40.6840174,39.6393052 40.4814929,39.5687041 40.2696959,39.5302696 C39.6366796,39.4121279 39.0006102,39.3126713 38.3707602,39.1821124 C37.3312248,38.9655785 36.8953053,38.3901257 36.8815096,37.2907815 C36.8694102,36.3183302 37.1216894,35.4011063 37.4077793,34.493698 C37.931109,32.8327374 38.636722,31.2497102 39.3129344,29.6536743 C39.9657395,28.1123928 40.6500937,26.5837651 41.1112299,24.9604112 C41.3652053,24.068968 41.486426,23.1751595 41.2555187,22.2532052 C40.9040691,20.8538356 40.1022259,19.9159162 38.7196089,19.6461653 C37.4538025,19.3998299 36.1938762,19.3718023 35.0491774,20.1613055 C34.6685535,20.4228965 34.3025167,20.360337 33.9720999,20.0553446 C33.7197075,19.8234369 33.4795277,19.5779293 33.2324501,19.3396356 C32.0647963,18.2122638 30.5210417,18.1569182 29.2674478,19.186489 C28.7616454,19.6020544 28.336016,20.1173128 27.7865651,20.4783604 C27.2955761,20.8008551 26.8005162,20.8922701 26.2568323,20.5890516 C25.7389305,20.3001427 25.2027098,20.0458838 24.6678461,19.7923346 C24.1260846,19.5364201 23.6012849,19.2203114 22.9914498,19.1665031 C21.0625481,18.9947897 19.0439748,20.1935905 18.1930553,22.0158575 C17.8154844,22.8222719 17.5072311,23.6600252 17.2149218,24.5032184 C15.8652108,28.4013018 14.7658567,32.3827584 13.6280557,36.3504969 C13.1185217,38.1262878 13.7198759,39.8736964 15.1576755,40.8327843 C16.2794192,41.5804235 17.5076834,41.7652638 18.7792568,41.3656635 C19.8094066,41.0413948 20.3735577,40.1741948 20.7678642,39.1999696 C22.0782238,35.9680443 23.2583163,32.6812465 24.507387,29.4236588 C24.8511472,28.5272486 25.1839387,27.6270541 25.5486185,26.7403412 C25.9168037,25.8449954 26.9747709,25.5400031 27.6023594,26.1337861 C27.9854711,26.4962528 28.0864506,26.9787532 28.0489084,27.494603 C28.0076346,28.0459307 27.8034139,28.5544484 27.6116319,29.0608373 C26.7989331,31.20962 25.9711947,33.352135 25.1548774,35.499262 C24.9898951,35.9335125 24.8111172,36.3642151 24.7381812,36.8302774 C24.6132289,37.6305423 24.9161676,38.3398653 25.5420599,38.6221517 C26.1806171,38.9103511 26.8434862,38.9584829 27.5054507,38.7071806 C28.2757449,38.4151968 28.7360895,37.7845167 29.0907053,37.0557991 C30.3091316,34.5534192 31.5181723,32.0448898 32.7358071,29.5423917 C33.2982621,28.3862828 33.8705549,27.2356138 34.4451094,26.0863639 C34.6586025,25.6603917 34.9087333,25.2567706 35.3075629,24.9919866 C35.6676065,24.7536929 36.0555806,24.7359539 36.4246704,24.9527243 C36.7848271,25.1637 36.8089129,25.5489908 36.7937603,25.9293147 C36.7855056,26.1337861 36.7307753,26.3336454 36.6555778,26.5238073 C36.4977195,26.9192685 36.3502645,27.3206427 36.1752182,27.7082987 C35.1624826,29.9364338 34.1343682,32.1559359 33.130679,34.3889197 C32.7076504,35.331333 32.2673208,36.2782401 32.3195633,37.26914 Z M46.5250004,53.6901208 C46.5273751,52.2121084 45.3427594,50.9762922 43.9178508,50.9722714 C42.4577747,50.9667132 41.2732721,52.1886929 41.2669397,53.7045485 C41.2608334,55.1863453 42.4655771,56.4436847 43.8902596,56.4455769 C45.33507,56.4471143 46.5227388,55.2051486 46.5250004,53.6901208 Z M2.4799357,31.0408631 C3.85407179,31.0440562 5.01030463,29.8428902 5.00487684,28.418686 C4.9986575,26.9921166 3.86707588,25.8092809 2.50447384,25.8052601 C1.10794811,25.8013575 -0.000791553048,26.9600682 3.21389923e-15,28.4228251 C0.00113079007,29.8702082 1.10659116,31.0376701 2.4799357,31.0408631 Z M33.249525,1.74622594 C31.8684911,1.73818427 30.7429027,2.8928741 30.7351002,4.32429214 C30.7267324,5.75417281 31.848363,6.92896683 33.2224991,6.93050421 C34.5912074,6.93133202 35.6905615,5.78468386 35.6930493,4.35231974 C35.6963286,2.91297829 34.6090739,1.7534398 33.249525,1.74622594 Z M53.5829397,17.9506729 C53.5768334,16.7638163 52.6093295,15.754468 51.4699454,15.7464263 C50.3068147,15.737675 49.3215573,16.7655902 49.3293598,17.9795283 C49.3376146,19.1903916 50.2768488,20.1611873 51.4415626,20.1628429 C52.6414439,20.1653264 53.5897244,19.1848334 53.5829397,17.9506729 Z M10.0189131,11.6132422 C10.0189131,12.7278419 10.8483476,13.602374 11.9071063,13.6040296 C12.9795476,13.605567 13.8114699,12.7263045 13.8076252,11.5956214 C13.8037805,10.498879 12.972876,9.64102151 11.9178488,9.64433279 C10.8328558,9.64657973 10.0194785,10.4898912 10.0189131,11.6132422 Z M29.8536494,57.5833556 C29.8628088,56.6550152 29.1324315,55.8904648 28.2346972,55.8871536 C27.3132164,55.8841971 26.5895107,56.6310084 26.5918854,57.5818182 C26.5942601,58.5197376 27.3142341,59.2627646 28.2195446,59.2627646 C29.1240636,59.2635925 29.8458469,58.5221028 29.8536494,57.5833556 Z M55.1804068,31.2063088 C54.3179532,31.1998045 53.5698225,31.9822121 53.5767204,32.8833527 C53.5841836,33.7738498 54.2949982,34.5049327 55.1557556,34.5067065 C56.0581261,34.5084804 56.7349039,33.8135852 56.7370524,32.8809875 C56.7395402,31.9580871 56.046592,31.2126948 55.1804068,31.2063088 Z M17.3007488,0.103713948 C16.5404056,0.10052093 15.9535255,0.707903866 15.9535255,1.49918097 C15.9535255,2.28549117 16.5465118,2.89689494 17.3061766,2.8928741 C18.0434517,2.88885326 18.6211724,2.27413821 18.6211724,1.49338624 C18.6212855,0.705420408 18.0526111,0.107734785 17.3007488,0.103713948 Z M58.1894392,23.711823 C57.5696532,23.7044909 57.0079897,24.2846741 57.0001873,24.9418444 C56.9918194,25.6214842 57.5326763,26.1871214 58.1924923,26.188777 C58.8477852,26.1912604 59.3617293,25.6583813 59.3663655,24.9699903 C59.3725849,24.2775785 58.8507252,23.7205743 58.1894392,23.711823 Z M11.2556582,48.1913894 C11.2585982,47.5333912 10.7161582,46.9669262 10.0771488,46.9606585 C9.42943222,46.9548637 8.89694318,47.5247583 8.90157942,48.2179979 C8.90689413,48.8952725 9.43248535,49.4302803 10.0870997,49.4255499 C10.7293885,49.4214108 11.2535097,48.8685457 11.2556582,48.1913894 Z" id="Shape" fill="#54C1DE"></path>
                <path d="M32.3195633,37.26914 C32.3211464,39.5590067 33.7267184,41.582907 35.7199621,42.2705884 C36.718902,42.6155526 37.7492779,42.7792243 38.7951457,42.8273561 C39.5418063,42.8610602 40.2872232,42.8065423 40.9771182,42.4469139 C41.5195582,42.1636814 41.7751167,41.6958452 41.7505786,41.0724972 C41.7260404,40.44501 41.4573647,39.9757547 40.8834888,39.7259897 C40.6840174,39.6393052 40.4814929,39.5687041 40.2696959,39.5302696 C39.6366796,39.4121279 39.0006102,39.3126713 38.3707602,39.1821124 C37.3312248,38.9655785 36.8953053,38.3901257 36.8815096,37.2907815 C36.8694102,36.3183302 37.1216894,35.4011063 37.4077793,34.493698 C37.931109,32.8327374 38.636722,31.2497102 39.3129344,29.6536743 C39.9657395,28.1123928 40.6500937,26.5837651 41.1112299,24.9604112 C41.3652053,24.068968 41.486426,23.1751595 41.2555187,22.2532052 C40.9040691,20.8538356 40.1022259,19.9159162 38.7196089,19.6461653 C37.4538025,19.3998299 36.1938762,19.3718023 35.0491774,20.1613055 C34.6685535,20.4228965 34.3025167,20.360337 33.9720999,20.0553446 C33.7197075,19.8234369 33.4795277,19.5779293 33.2324501,19.3396356 C32.0647963,18.2122638 30.5210417,18.1569182 29.2674478,19.186489 C28.7616454,19.6020544 28.336016,20.1173128 27.7865651,20.4783604 C27.2955761,20.8008551 26.8005162,20.8922701 26.2568323,20.5890516 C25.7389305,20.3001427 25.2027098,20.0458838 24.6678461,19.7923346 C24.1260846,19.5364201 23.6012849,19.2203114 22.9914498,19.1665031 C21.0625481,18.9947897 19.0439748,20.1935905 18.1930553,22.0158575 C17.8154844,22.8222719 17.5072311,23.6600252 17.2149218,24.5032184 C15.8652108,28.4013018 14.7658567,32.3827584 13.6280557,36.3504969 C13.1185217,38.1262878 13.7198759,39.8736964 15.1576755,40.8327843 C16.2794192,41.5804235 17.5076834,41.7652638 18.7792568,41.3656635 C19.8094066,41.0413948 20.3735577,40.1741948 20.7678642,39.1999696 C22.0782238,35.9680443 23.2583163,32.6812465 24.507387,29.4236588 C24.8511472,28.5272486 25.1839387,27.6270541 25.5486185,26.7403412 C25.9168037,25.8449954 26.9747709,25.5400031 27.6023594,26.1337861 C27.9854711,26.4962528 28.0864506,26.9787532 28.0489084,27.494603 C28.0076346,28.0459307 27.8034139,28.5544484 27.6116319,29.0608373 C26.7989331,31.20962 25.9711947,33.352135 25.1548774,35.499262 C24.9898951,35.9335125 24.8111172,36.3642151 24.7381812,36.8302774 C24.6132289,37.6305423 24.9161676,38.3398653 25.5420599,38.6221517 C26.1806171,38.9103511 26.8434862,38.9584829 27.5054507,38.7071806 C28.2757449,38.4151968 28.7360895,37.7845167 29.0907053,37.0557991 C30.3091316,34.5534192 31.5181723,32.0448898 32.7358071,29.5423917 C33.2982621,28.3862828 33.8705549,27.2356138 34.4451094,26.0863639 C34.6586025,25.6603917 34.9087333,25.2567706 35.3075629,24.9919866 C35.6676065,24.7536929 36.0555806,24.7359539 36.4246704,24.9527243 C36.7848271,25.1637 36.8089129,25.5489908 36.7937603,25.9293147 C36.7855056,26.1337861 36.7307753,26.3336454 36.6555778,26.5238073 C36.4977195,26.9192685 36.3502645,27.3206427 36.1752182,27.7082987 C35.1624826,29.9364338 34.1343682,32.1559359 33.130679,34.3889197 C32.7076504,35.331333 32.2673208,36.2782401 32.3195633,37.26914 Z" id="Shape" fill="#FFFFFF"></path>
            </g>
        </g>
    </g>
</svg>