<?xml version="1.0" encoding="UTF-8"?>
<svg width="90px" height="80px" viewBox="0 0 90 80" version="1.1" xmlns="http://www.w3.org/2000/svg" xmlns:xlink="http://www.w3.org/1999/xlink">
    <!-- Generator: Sketch 45.2 (43514) - http://www.bohemiancoding.com/sketch -->
    <title>Logo</title>
    <desc>Created with Sketch.</desc>
    <defs>
        <path d="M11.1508978,22.1100559 C9.47309383,22.0958011 7.8537515,22.049574 6.25701763,21.9355216 C6.18483173,21.8305239 6.11291196,21.7252601 6.04125832,21.6197464 L6.0412584,11.1116003 L11.1105219,18.8750179 L11.1508978,22.1100575 Z M12.1502278,22.1150334 C12.2592385,22.1152282 12.3685179,22.1153209 12.4780754,22.1153209 C12.7253127,22.1153209 12.9716056,22.1143766 13.2170082,22.1124879 L12.1502278,22.1150334 Z M13.3778569,22.1111136 L13.3770722,11.6150385 L16.5415409,15.9302231 L19.7060096,11.6150385 L19.7060096,16.566785 L19.7060096,20.473992 C19.3980311,20.9523648 19.0858879,21.4273092 18.7710529,21.8995617 C17.0075724,22.0233147 15.2174741,22.093832 13.377857,22.1111135 Z M20.2099806,19.681712 C20.3884358,19.3975739 20.5651649,19.1121058 20.7398668,18.8251571 C20.5637591,19.1106968 20.3762638,19.4135501 20.2099806,19.681712 Z M21.818268,16.9832282 C21.8924049,16.8421636 21.9355216,16.7559327 21.9355216,16.7559327 L21.9355216,5.35238578 C21.9715656,5.41415502 22.007526,5.47596633 22.0434012,5.5378202 C23.0862375,7.33581378 24.057154,9.16976722 24.9921107,11.0396805 C24.057154,12.9095939 23.0862375,14.7795072 22.0434012,16.5775007 C21.9689371,16.7131317 21.893883,16.8483693 21.818268,16.9832281 Z M21.8365745,5.18328337 L21.8312528,5.17479735 L16.5415409,12.298276 L11.3149866,5.56771218 C11.2155478,5.42024278 11.1027174,5.27546794 10.9759156,5.13106904 L10.9383834,5.08273652 L10.9384601,5.08887772 C10.8684492,5.01085756 10.7943403,4.93288124 10.7160417,4.85458265 C9.88896465,3.99154573 8.73824876,3.59598715 7.551573,3.59598715 L4.04896294,3.59598715 C4.73757144,2.46662277 5.46470625,1.35186676 6.22105776,0.2517191 C8.27077043,0.0719197429 10.356443,0 12.4780754,0 C14.5997078,0 16.6853804,0.107879614 18.735093,0.2517191 C19.8100747,1.86419161 20.8536741,3.50804637 21.8365745,5.18328337 Z M11.0059102,10.4931972 L11.0524823,14.2247016 L9.34956658,11.6150385 C10.1217383,11.3128843 10.5177824,11.1047621 11.0059102,10.4931972 Z M3.58218487,17.7504368 C3.35584053,17.3718946 3.13269544,16.9926776 2.91274959,16.6134606 C1.86991332,14.7795072 0.898996786,12.9455537 0,11.0756404 C0.898996786,9.16976722 1.86991332,7.33581378 2.91274959,5.5378202 C3.13511713,5.1407353 3.36274642,4.74540431 3.59525011,4.35182724 L3.58218487,17.7504368 Z M7.80329211,9.45744619 L6.0412584,9.49340606 L6.0412584,6.0412584 L7.40773352,6.0412584 C7.91117172,6.0412584 8.55844941,6.18509789 8.91804812,6.5446966 C9.24168696,6.90429532 9.38552645,7.22793416 9.38552645,7.73137236 C9.38552645,8.23481056 9.27764683,8.63036915 8.91804812,8.98996786 C8.55844941,9.31360671 8.30673031,9.45744619 7.80329211,9.45744619 Z" id="path-1"></path>
    </defs>
    <g id="Page-1" stroke="none" stroke-width="1" fill="none" fill-rule="evenodd">
        <g id="Mobile" transform="translate(-115.000000, -44.000000)">
            <g id="Logo" transform="translate(115.000000, 44.000000)">
                <g id="Group" fill-rule="nonzero" fill="#54C1DE">
                    <path d="M73.9694556,25.9357629 L73.9694556,25.9357629 C72.998539,25.612124 72.0635824,25.2884852 71.056706,25.0367661 C71.2005455,24.3894884 71.3803448,23.7062509 71.4882244,23.0589732 C73.6817766,12.4148512 72.2433817,3.85640181 67.3528392,1.01557197 C62.6780559,-1.68141839 54.9826434,1.12345158 47.2512711,7.88390741 C46.4961138,8.56714497 45.7409565,9.25038253 45.0217591,9.93362009 C44.5183209,9.46614176 44.0508425,8.99866343 43.5474043,8.56714497 C35.4204734,1.33921081 27.2935424,-1.71737826 22.4029999,1.12345158 C17.7282166,3.82044194 16.3257816,11.8754531 18.3035746,21.980177 C18.4833739,22.9870534 18.735093,23.95797 18.9508523,24.9648464 C17.8001364,25.2884852 16.6853804,25.6480839 15.6065842,26.0076826 C6.07721828,29.3159908 0,34.5301722 0,39.9241529 C0,45.497933 6.5446966,51.071713 16.4336613,54.4879008 C17.2247784,54.7755798 18.0518555,55.0272989 18.8789325,55.2430581 C18.6272134,56.3218543 18.3754943,57.3646905 18.1597351,58.4434867 C16.2898218,68.3324513 17.7641765,76.2076632 22.4389598,78.9046535 C27.2575826,81.6735636 35.3845135,78.8327338 43.2597254,71.9284385 C43.8710432,71.3890404 44.5183209,70.8136825 45.1296387,70.2023646 C45.9207558,70.9575219 46.711873,71.7126792 47.5749099,72.4318767 C55.2343625,79.0125331 62.7499757,81.6735636 67.424759,78.9765733 C72.2433817,76.1717033 73.8256161,67.7211335 71.7759034,57.4366103 C71.6320639,56.6454931 71.4522646,55.8543759 71.2365053,55.0272989 C71.8118633,54.8474995 72.3512614,54.70366 72.9266193,54.4879008 C83.2471024,51.071713 89.9356385,45.5338928 89.9356385,39.888193 C89.9356385,34.4942123 83.6786209,29.2800309 73.9694556,25.9357629 Z M49.804422,10.7606971 C56.4569982,4.97115783 62.6420961,2.70568593 65.4829259,4.32388014 L65.4829259,4.32388014 C68.5035551,6.04995397 69.654271,13.0621289 67.7843577,22.2318961 C67.6764781,22.8432139 67.5326386,23.4185719 67.3887991,24.0298897 C63.6489725,23.1668528 59.6214669,22.5195751 55.378202,22.1240165 C52.8969709,18.5999491 50.34382,15.3995205 47.7906692,12.6306104 C48.401987,12.0192926 49.0852245,11.3720149 49.804422,10.7606971 Z M26.574345,44.5270164 C27.401422,46.1092508 28.2284991,47.6555252 29.1274959,49.1658398 C30.0264927,50.7121143 30.9614493,52.2583888 31.9683257,53.7687034 C29.0196163,53.4450645 26.2507062,52.9775862 23.6975553,52.4381881 C24.4527126,49.8850373 25.4236291,47.2240068 26.574345,44.5270164 Z M26.574345,35.5010887 C25.459589,32.8400582 24.4886725,30.2509475 23.7335152,27.7337565 C26.286666,27.1583985 29.0196163,26.6909202 31.896406,26.3313215 C30.9254894,27.8056762 30.0264927,29.3159908 29.1274959,30.8622653 C28.2284991,32.3725799 27.401422,33.9188543 26.574345,35.5010887 Z M28.6240577,39.9960726 C29.8107334,37.5148415 31.0693289,35.1055301 32.435804,32.7321786 L32.435804,32.7321786 C33.8022792,30.3588271 35.240674,28.0573953 36.7869485,25.7919234 C39.447979,25.5761642 42.2168891,25.4682846 44.9857992,25.4682846 C47.7547093,25.4682846 50.5236194,25.5761642 53.1846499,25.7919234 C54.6949645,28.0573953 56.1693192,30.3588271 57.4998345,32.6962187 C58.8663096,35.0695702 60.1608649,37.4788816 61.3835006,39.9241529 C60.1968248,42.405384 58.9022694,44.8146954 57.5357943,47.1880469 L57.5357943,47.1880469 C56.1693192,49.5613984 54.7309243,51.8628302 53.2206097,54.164262 C50.5595793,54.3440613 47.7906692,54.4519409 44.9857992,54.4519409 C42.1809292,54.4519409 39.447979,54.3800212 36.8588682,54.2002218 C35.3125938,51.9347499 33.838239,49.5973583 32.4717639,47.2240068 C31.0693289,44.8866151 29.8107334,42.4773038 28.6240577,39.9960726 Z M60.8800624,49.1658398 C61.7790592,47.5836055 62.6420961,46.0013712 63.505133,44.3831769 L63.505133,44.3831769 C64.6918087,47.1161272 65.734645,49.7771577 66.5257622,52.2943487 C63.9006916,52.9056665 61.0958216,53.3731448 58.1471121,53.7327435 C59.0461089,52.2224289 59.9810656,50.7121143 60.8800624,49.1658398 Z M63.4332132,35.5010887 C62.6061362,33.9188543 61.7430993,32.3725799 60.8441025,30.8263054 L60.8441025,30.8263054 C59.9810656,29.3159908 59.0461089,27.8056762 58.1111523,26.3313215 C60.987942,26.6909202 63.7208922,27.1583985 66.310003,27.7697163 C65.5548457,30.2509475 64.5839291,32.8400582 63.4332132,35.5010887 Z M45.0217591,15.3995205 C46.7837928,17.3053937 48.5817863,19.462986 50.3078602,21.8003777 C46.7837928,21.6205783 43.2237655,21.6205783 39.6637382,21.8003777 C41.4257719,19.4989459 43.2237655,17.3413536 45.0217591,15.3995205 Z M24.3088731,4.43175975 C27.3295023,2.70568593 33.9820785,5.18691706 40.9942535,11.4079748 C41.4257719,11.8035334 41.8932502,12.2350519 42.3607286,12.6665703 C39.735658,15.4714403 37.1825071,18.6718688 34.701276,22.1599764 C30.4580111,22.555535 26.4305055,23.1668528 22.6906789,24.0298897 C22.4749197,23.094933 22.2591604,22.1959363 22.0793611,21.2609796 L22.0793611,21.2609796 C20.3532872,12.5946506 21.5040031,6.08591384 24.3088731,4.43175975 Z M19.9217688,51.5391914 C19.1666115,51.3234321 18.4474141,51.1076729 17.6922568,50.8559538 C13.3051524,49.3456392 9.67320542,47.4038061 7.19197429,45.2821737 C4.96246226,43.3763005 3.84770625,41.4704273 3.84770625,39.9241529 C3.84770625,36.6518046 8.73824876,32.4804595 16.8651797,29.6396296 C17.8720561,29.2800309 18.9148924,28.9563921 19.9577287,28.6687131 C21.0724847,32.33662 22.5468394,36.1483664 24.344833,40.0320325 C22.5827993,43.9516585 21.0724847,47.8353246 19.9217688,51.5391914 Z M40.7425344,69.0516488 C37.2544268,72.1082378 33.7663193,74.2658301 30.6737703,75.3446263 L30.6737703,75.3446263 C27.9048602,76.3155428 25.7113081,76.3515027 24.3807928,75.5963454 C21.539963,73.9781511 20.3532872,67.6492138 21.9714815,59.1626841 C22.1512808,58.1558077 22.36704,57.1489313 22.6187591,56.1780148 C26.286666,57.0050918 30.3860914,57.5804498 34.7372358,57.9400485 C37.218467,61.428156 39.8435376,64.6645444 42.4686082,67.4694144 C41.8932502,68.0088125 41.3178923,68.5122507 40.7425344,69.0516488 Z M45.1296387,64.7005043 C43.2956852,62.7227114 41.4976917,60.5651191 39.735658,58.2277274 C41.4617318,58.2996472 43.2237655,58.3356071 44.9857992,58.3356071 C46.8197526,58.3356071 48.6177462,58.2996472 50.4157398,58.2277274 C48.6537061,60.601079 46.8916724,62.7586712 45.1296387,64.7005043 Z M68.4675952,70.0585252 C67.9281972,72.9353149 66.849401,74.8771479 65.5188858,75.6323052 C62.6780559,77.2864593 56.6367975,75.128867 50.0921009,69.5191271 C49.3369436,68.8718494 48.5817863,68.1886118 47.826629,67.4694144 C50.34382,64.7005043 52.8969709,61.4641159 55.378202,57.9040886 C59.7293465,57.50853 63.8287718,56.8972122 67.5685985,56.0341753 C67.7483978,56.7893326 67.9281972,57.50853 68.0720367,58.1917676 L68.0720367,58.1917676 C68.9350736,62.7227114 69.0789131,66.8221367 68.4675952,70.0585252 Z M71.7399435,50.8559538 L71.7399435,50.8559538 C71.2365053,51.0357532 70.7330671,51.1795926 70.2296289,51.3234321 C69.0789131,47.727445 67.5685985,43.8797387 65.6627253,39.9241529 C67.4607188,36.0764466 68.9350736,32.2647003 70.0498296,28.704673 C70.9847862,28.9563921 71.8478232,29.2440711 72.7108601,29.53175 C81.0175904,32.4085397 86.1238921,36.6158447 86.1238921,39.888193 C86.1238921,43.3763005 80.6220318,47.9072443 71.7399435,50.8559538 Z" id="Shape"></path>
                </g>
                <g id="Subtract" transform="translate(32.363884, 28.767897)">
                    <mask id="mask-2" fill="white">
                        <use xlink:href="#path-1"></use>
                    </mask>
                    <use id="Combined-Shape" fill="#54C1DE" fill-rule="nonzero" xlink:href="#path-1"></use>
                </g>
            </g>
        </g>
    </g>
</svg>